<?xml version="1.0" encoding="UTF-8" standalone="no"?>
<!DOCTYPE svg PUBLIC "-//W3C//DTD SVG 1.1//EN" "http://www.w3.org/Graphics/SVG/1.1/DTD/svg11.dtd">
<svg version="1.1" xmlns="http://www.w3.org/2000/svg" xmlns:xlink="http://www.w3.org/1999/xlink" preserveAspectRatio="xMidYMid meet" viewBox="0 0 640 640" width="640" height="640"><defs><path d="M318.72 0L318.72 0L23.04 106.56L67.84 499.52L318.72 640L318.72 640L318.72 640L571.2 499.52L616.96 106.56L318.72 0L318.72 0L318.72 0Z" id="cddv5Te6u"></path><path d="M318.72 71.04L318.72 71.04L318.72 394.24L318.72 394.24L318.72 640L318.72 640L571.2 499.52L616.96 106.56L318.72 0L318.72 0L318.72 71.04Z" id="e6AeGwhjW"></path><path d="M389.18 282.83L459.63 388.18L318.72 388.18L177.81 388.18L248.26 282.83L318.72 177.49L389.18 282.83Z" id="j6sEmdMXa"></path><path d="M318.72 0L318.72 0L23.04 106.56L67.84 499.52L318.72 640L318.72 640L318.72 640L571.2 499.52L616.96 106.56L318.72 0L318.72 0L318.72 0Z" id="c2SyqTtZml"></path><path d="M318.72 71.04L318.72 71.04L318.72 394.24L318.72 394.24L318.72 640L318.72 640L571.2 499.52L616.96 106.56L318.72 0L318.72 0L318.72 71.04Z" id="f2hJCITMJP"></path><path d="M397.85 288.72L476.97 403.16L318.72 403.16L160.47 403.16L239.59 288.72L318.72 174.28L397.85 288.72Z" id="b1l9M2ddjs"></path></defs><g><g><g><use xlink:href="#cddv5Te6u" opacity="1" fill="#1b75a1" fill-opacity="1"></use><g><use xlink:href="#cddv5Te6u" opacity="1" fill-opacity="0" stroke="#000000" stroke-width="1" stroke-opacity="0"></use></g></g><g><use xlink:href="#e6AeGwhjW" opacity="1" fill="#1b75a1" fill-opacity="1"></use><g><use xlink:href="#e6AeGwhjW" opacity="1" fill-opacity="0" stroke="#000000" stroke-width="1" stroke-opacity="0"></use></g></g><g><use xlink:href="#j6sEmdMXa" opacity="1" fill="#6164c3" fill-opacity="0"></use><g><use xlink:href="#j6sEmdMXa" opacity="1" fill-opacity="0" stroke="#e5e5e5" stroke-width="53" stroke-opacity="0.63"></use></g></g><g><use xlink:href="#c2SyqTtZml" opacity="1" fill="#606bce" fill-opacity="1"></use><g><use xlink:href="#c2SyqTtZml" opacity="1" fill-opacity="0" stroke="#000000" stroke-width="1" stroke-opacity="0"></use></g></g><g><use xlink:href="#f2hJCITMJP" opacity="1" fill="#737fed" fill-opacity="1"></use><g><use xlink:href="#f2hJCITMJP" opacity="1" fill-opacity="0" stroke="#000000" stroke-width="1" stroke-opacity="0"></use></g></g><g><use xlink:href="#b1l9M2ddjs" opacity="1" fill="#ffffff" fill-opacity="0"></use><g><use xlink:href="#b1l9M2ddjs" opacity="1" fill-opacity="0" stroke="#ffffff" stroke-width="60" stroke-opacity="0.53"></use></g></g></g></g></svg>